<mxfile host="app.diagrams.net" modified="2022-01-04T16:36:27.052Z" agent="5.0 (Windows NT 10.0; Win64; x64) AppleWebKit/537.36 (KHTML, like Gecko) Chrome/96.0.4664.110 Safari/537.36" etag="YN-IpELbrSa6Yx9JDIXU" version="16.2.1" type="github">
  <diagram id="7hTTOB7ClsqEDwTLcSCh" name="Page-1">
    <mxGraphModel dx="976" dy="587" grid="0" gridSize="10" guides="1" tooltips="1" connect="1" arrows="1" fold="1" page="1" pageScale="1" pageWidth="1169" pageHeight="827" background="none" math="0" shadow="0">
      <root>
        <mxCell id="0" />
        <mxCell id="1" parent="0" />
        <mxCell id="rkOdm2BE_4eYjGRkywIe-1" value="ThreadLocal&lt;br style=&quot;font-size: 16px;&quot;&gt;ThreadLocalMap" style="text;html=1;strokeColor=none;fillColor=none;align=left;verticalAlign=middle;whiteSpace=wrap;rounded=0;fontSize=16;" parent="1" vertex="1">
          <mxGeometry x="6" y="9" width="60" height="30" as="geometry" />
        </mxCell>
        <mxCell id="rkOdm2BE_4eYjGRkywIe-10" value="" style="group" parent="1" vertex="1" connectable="0">
          <mxGeometry x="26" y="132" width="256" height="326" as="geometry" />
        </mxCell>
        <mxCell id="rkOdm2BE_4eYjGRkywIe-2" value="&lt;font style=&quot;font-size: 14px&quot;&gt;Thread&lt;/font&gt;" style="rounded=0;whiteSpace=wrap;html=1;fontSize=16;align=left;verticalAlign=top;fontStyle=0;strokeWidth=2;" parent="rkOdm2BE_4eYjGRkywIe-10" vertex="1">
          <mxGeometry width="256" height="326" as="geometry" />
        </mxCell>
        <mxCell id="rkOdm2BE_4eYjGRkywIe-3" value="&lt;span&gt;ThreadLocalMap threadlocals&lt;/span&gt;" style="rounded=0;whiteSpace=wrap;html=1;fontSize=14;strokeWidth=2;align=left;verticalAlign=top;" parent="rkOdm2BE_4eYjGRkywIe-10" vertex="1">
          <mxGeometry x="9" y="34" width="237" height="276" as="geometry" />
        </mxCell>
        <mxCell id="rkOdm2BE_4eYjGRkywIe-4" value="&lt;font style=&quot;font-size: 13px&quot;&gt;Entry&lt;br&gt;(ThreadLocal, Object)&lt;/font&gt;" style="rounded=0;whiteSpace=wrap;html=1;fontSize=14;strokeWidth=2;align=left;verticalAlign=middle;strokeColor=#00FF00;" parent="rkOdm2BE_4eYjGRkywIe-10" vertex="1">
          <mxGeometry x="88" y="77" width="140" height="41" as="geometry" />
        </mxCell>
        <mxCell id="rkOdm2BE_4eYjGRkywIe-5" value="&lt;font style=&quot;font-size: 13px&quot;&gt;Entry&lt;br&gt;(ThreadLocal, Object)&lt;/font&gt;" style="rounded=0;whiteSpace=wrap;html=1;fontSize=14;strokeWidth=2;align=left;verticalAlign=middle;strokeColor=#00FF00;" parent="rkOdm2BE_4eYjGRkywIe-10" vertex="1">
          <mxGeometry x="88" y="118" width="140" height="41" as="geometry" />
        </mxCell>
        <mxCell id="rkOdm2BE_4eYjGRkywIe-6" value="&lt;font style=&quot;font-size: 13px&quot;&gt;Entry&lt;br&gt;(ThreadLocal, Object)&lt;/font&gt;" style="rounded=0;whiteSpace=wrap;html=1;fontSize=14;strokeWidth=2;align=left;verticalAlign=middle;strokeColor=#00FF00;" parent="rkOdm2BE_4eYjGRkywIe-10" vertex="1">
          <mxGeometry x="88" y="159" width="140" height="41" as="geometry" />
        </mxCell>
        <mxCell id="rkOdm2BE_4eYjGRkywIe-7" value="&lt;font style=&quot;font-size: 13px&quot;&gt;Entry&lt;br&gt;(ThreadLocal, Object)&lt;/font&gt;" style="rounded=0;whiteSpace=wrap;html=1;fontSize=14;strokeWidth=2;align=left;verticalAlign=middle;strokeColor=#00FF00;" parent="rkOdm2BE_4eYjGRkywIe-10" vertex="1">
          <mxGeometry x="88" y="200" width="140" height="41" as="geometry" />
        </mxCell>
        <mxCell id="rkOdm2BE_4eYjGRkywIe-8" value="" style="shape=curlyBracket;whiteSpace=wrap;html=1;rounded=1;fontSize=13;strokeWidth=2;" parent="rkOdm2BE_4eYjGRkywIe-10" vertex="1">
          <mxGeometry x="65" y="77" width="20" height="164" as="geometry" />
        </mxCell>
        <mxCell id="rkOdm2BE_4eYjGRkywIe-9" value="Entry&lt;br&gt;数组" style="text;html=1;strokeColor=none;fillColor=none;align=center;verticalAlign=middle;whiteSpace=wrap;rounded=0;fontSize=13;" parent="rkOdm2BE_4eYjGRkywIe-10" vertex="1">
          <mxGeometry x="14" y="142" width="60" height="30" as="geometry" />
        </mxCell>
        <mxCell id="G72dxYS67CxA6Sql_L50-1" value="TreadLocal" style="text;html=1;strokeColor=none;fillColor=none;align=center;verticalAlign=middle;whiteSpace=wrap;rounded=0;" vertex="1" parent="1">
          <mxGeometry x="343" y="64" width="60" height="30" as="geometry" />
        </mxCell>
        <mxCell id="G72dxYS67CxA6Sql_L50-2" value="&lt;div class=&quot;mind-clipboard&quot; style=&quot;font-size: 13px;&quot;&gt;&lt;div style=&quot;font-size: 13px;&quot;&gt;public void set(T value) {&lt;br style=&quot;font-size: 13px;&quot;&gt;&lt;div style=&quot;font-size: 13px;&quot;&gt;&lt;/div&gt;&amp;nbsp;&amp;nbsp;&amp;nbsp;&amp;nbsp;&amp;nbsp;&amp;nbsp;&amp;nbsp;&amp;nbsp;Thread t = Thread.currentThread();&lt;br style=&quot;font-size: 13px;&quot;&gt;&lt;div style=&quot;font-size: 13px;&quot;&gt;&lt;/div&gt;&amp;nbsp;&amp;nbsp;&amp;nbsp;&amp;nbsp;&amp;nbsp;&amp;nbsp;&amp;nbsp;&amp;nbsp;ThreadLocalMap map = getMap(t);&lt;br style=&quot;font-size: 13px;&quot;&gt;&lt;div style=&quot;font-size: 13px;&quot;&gt;&lt;/div&gt;&amp;nbsp;&amp;nbsp;&amp;nbsp;&amp;nbsp;&amp;nbsp;&amp;nbsp;&amp;nbsp;&amp;nbsp;if (map != null)&lt;br style=&quot;font-size: 13px;&quot;&gt;&lt;div style=&quot;font-size: 13px;&quot;&gt;&lt;/div&gt;&amp;nbsp;&amp;nbsp;&amp;nbsp;&amp;nbsp;&amp;nbsp;&amp;nbsp;&amp;nbsp;&amp;nbsp;&amp;nbsp;&amp;nbsp;&amp;nbsp;&amp;nbsp;map.set(this, value);&lt;br style=&quot;font-size: 13px;&quot;&gt;&lt;div style=&quot;font-size: 13px;&quot;&gt;&lt;/div&gt;&amp;nbsp;&amp;nbsp;&amp;nbsp;&amp;nbsp;&amp;nbsp;&amp;nbsp;&amp;nbsp;&amp;nbsp;else&lt;br style=&quot;font-size: 13px;&quot;&gt;&lt;div style=&quot;font-size: 13px;&quot;&gt;&lt;/div&gt;&amp;nbsp;&amp;nbsp;&amp;nbsp;&amp;nbsp;&amp;nbsp;&amp;nbsp;&amp;nbsp;&amp;nbsp;&amp;nbsp;&amp;nbsp;&amp;nbsp;&amp;nbsp;createMap(t, value);//创建一个ThreadLocalMap对象&lt;br style=&quot;font-size: 13px;&quot;&gt;&lt;div style=&quot;font-size: 13px;&quot;&gt;&lt;/div&gt;&amp;nbsp;&amp;nbsp;&amp;nbsp;&amp;nbsp;}&lt;br style=&quot;font-size: 13px;&quot;&gt;&lt;/div&gt;&lt;div style=&quot;font-size: 13px;&quot;&gt;1.先找到当前线程的threadlocals属性&lt;/div&gt;&lt;div style=&quot;font-size: 13px;&quot;&gt;2.&lt;font color=&quot;#ff0000&quot; style=&quot;font-size: 13px;&quot;&gt;在threadlocals的底层数组中寻找对应当前ThreadLocal的位置，并封装为Entry对象填充进数组中。&lt;/font&gt;&lt;/div&gt;&lt;/div&gt;" style="rounded=0;whiteSpace=wrap;html=1;align=left;verticalAlign=top;fontSize=13;strokeWidth=2;" vertex="1" parent="1">
          <mxGeometry x="343" y="94" width="354" height="192" as="geometry" />
        </mxCell>
        <mxCell id="G72dxYS67CxA6Sql_L50-3" value="ThreadLocalMap" style="text;html=1;strokeColor=none;fillColor=none;align=center;verticalAlign=middle;whiteSpace=wrap;rounded=0;fontSize=13;" vertex="1" parent="1">
          <mxGeometry x="762" y="57" width="60" height="30" as="geometry" />
        </mxCell>
        <mxCell id="G72dxYS67CxA6Sql_L50-4" value="&lt;div class=&quot;mind-clipboard&quot;&gt;private void set(ThreadLocal&amp;lt;?&amp;gt; key, Object value) {&lt;br&gt;&lt;div&gt;&lt;/div&gt;&amp;nbsp; &amp;nbsp; &amp;nbsp; &amp;nbsp; &amp;nbsp; &amp;nbsp; Entry[] tab = table;&lt;br&gt;&lt;div&gt;&lt;/div&gt;&amp;nbsp;&amp;nbsp;&amp;nbsp;&amp;nbsp;&amp;nbsp;&amp;nbsp;&amp;nbsp;&amp;nbsp;&amp;nbsp;&amp;nbsp;&amp;nbsp;&amp;nbsp;int len = tab.length;&lt;br&gt;&lt;div&gt;&lt;/div&gt;&amp;nbsp;&amp;nbsp;&amp;nbsp;&amp;nbsp;&amp;nbsp;&amp;nbsp;&amp;nbsp;&amp;nbsp;&amp;nbsp;&amp;nbsp;&amp;nbsp;&amp;nbsp;int i = key.threadLocalHashCode &amp;amp; (len-1);&lt;br&gt;&lt;div&gt;&lt;/div&gt;&lt;br&gt;&lt;div&gt;&lt;/div&gt;&amp;nbsp;&amp;nbsp;&amp;nbsp;&amp;nbsp;&amp;nbsp;&amp;nbsp;&amp;nbsp;&amp;nbsp;&amp;nbsp;&amp;nbsp;&amp;nbsp;&amp;nbsp;for (Entry e = tab[i];&lt;br&gt;&lt;div&gt;&lt;/div&gt;&amp;nbsp;&amp;nbsp;&amp;nbsp;&amp;nbsp;&amp;nbsp;&amp;nbsp;&amp;nbsp;&amp;nbsp;&amp;nbsp;&amp;nbsp;&amp;nbsp;&amp;nbsp;&amp;nbsp;&amp;nbsp;&amp;nbsp;&amp;nbsp; e != null;&lt;br&gt;&lt;div&gt;&lt;/div&gt;&amp;nbsp;&amp;nbsp;&amp;nbsp;&amp;nbsp;&amp;nbsp;&amp;nbsp;&amp;nbsp;&amp;nbsp;&amp;nbsp;&amp;nbsp;&amp;nbsp;&amp;nbsp;&amp;nbsp;&amp;nbsp;&amp;nbsp;&amp;nbsp; e = tab[i = nextIndex(i, len)]) {&lt;br&gt;&lt;div&gt;&lt;/div&gt;&amp;nbsp;&amp;nbsp;&amp;nbsp;&amp;nbsp;&amp;nbsp;&amp;nbsp;&amp;nbsp;&amp;nbsp;&amp;nbsp;&amp;nbsp;&amp;nbsp;&amp;nbsp;&amp;nbsp;&amp;nbsp;&amp;nbsp;&amp;nbsp;ThreadLocal&amp;lt;?&amp;gt; k = e.get();&lt;br&gt;&lt;div&gt;&lt;/div&gt;&lt;br&gt;&lt;div&gt;&lt;/div&gt;&amp;nbsp;&amp;nbsp;&amp;nbsp;&amp;nbsp;&amp;nbsp;&amp;nbsp;&amp;nbsp;&amp;nbsp;&amp;nbsp;&amp;nbsp;&amp;nbsp;&amp;nbsp;&amp;nbsp;&amp;nbsp;&amp;nbsp;&amp;nbsp;if (k == key) {&lt;br&gt;&lt;div&gt;&lt;/div&gt;&amp;nbsp;&amp;nbsp;&amp;nbsp;&amp;nbsp;&amp;nbsp;&amp;nbsp;&amp;nbsp;&amp;nbsp;&amp;nbsp;&amp;nbsp;&amp;nbsp;&amp;nbsp;&amp;nbsp;&amp;nbsp;&amp;nbsp;&amp;nbsp;&amp;nbsp;&amp;nbsp;&amp;nbsp;&amp;nbsp;e.value = value;&lt;br&gt;&lt;div&gt;&lt;/div&gt;&amp;nbsp;&amp;nbsp;&amp;nbsp;&amp;nbsp;&amp;nbsp;&amp;nbsp;&amp;nbsp;&amp;nbsp;&amp;nbsp;&amp;nbsp;&amp;nbsp;&amp;nbsp;&amp;nbsp;&amp;nbsp;&amp;nbsp;&amp;nbsp;&amp;nbsp;&amp;nbsp;&amp;nbsp;&amp;nbsp;return;&lt;br&gt;&lt;div&gt;&lt;/div&gt;&amp;nbsp;&amp;nbsp;&amp;nbsp;&amp;nbsp;&amp;nbsp;&amp;nbsp;&amp;nbsp;&amp;nbsp;&amp;nbsp;&amp;nbsp;&amp;nbsp;&amp;nbsp;&amp;nbsp;&amp;nbsp;&amp;nbsp;&amp;nbsp;}&lt;br&gt;&lt;div&gt;&lt;/div&gt;&lt;br&gt;&lt;div&gt;&lt;/div&gt;&amp;nbsp;&amp;nbsp;&amp;nbsp;&amp;nbsp;&amp;nbsp;&amp;nbsp;&amp;nbsp;&amp;nbsp;&amp;nbsp;&amp;nbsp;&amp;nbsp;&amp;nbsp;&amp;nbsp;&amp;nbsp;&amp;nbsp;&amp;nbsp;if (k == null) {&lt;br&gt;&lt;div&gt;&lt;/div&gt;&amp;nbsp;&amp;nbsp;&amp;nbsp;&amp;nbsp;&amp;nbsp;&amp;nbsp;&amp;nbsp;&amp;nbsp;&amp;nbsp;&amp;nbsp;&amp;nbsp;&amp;nbsp;&amp;nbsp;&amp;nbsp;&amp;nbsp;&amp;nbsp;&amp;nbsp;&amp;nbsp;&amp;nbsp;&amp;nbsp;replaceStaleEntry(key, value, i);&lt;br&gt;&lt;div&gt;&lt;/div&gt;&amp;nbsp;&amp;nbsp;&amp;nbsp;&amp;nbsp;&amp;nbsp;&amp;nbsp;&amp;nbsp;&amp;nbsp;&amp;nbsp;&amp;nbsp;&amp;nbsp;&amp;nbsp;&amp;nbsp;&amp;nbsp;&amp;nbsp;&amp;nbsp;&amp;nbsp;&amp;nbsp;&amp;nbsp;&amp;nbsp;return;&lt;br&gt;&lt;div&gt;&lt;/div&gt;&amp;nbsp;&amp;nbsp;&amp;nbsp;&amp;nbsp;&amp;nbsp;&amp;nbsp;&amp;nbsp;&amp;nbsp;&amp;nbsp;&amp;nbsp;&amp;nbsp;&amp;nbsp;&amp;nbsp;&amp;nbsp;&amp;nbsp;&amp;nbsp;}&lt;br&gt;&lt;div&gt;&lt;/div&gt;&amp;nbsp;&amp;nbsp;&amp;nbsp;&amp;nbsp;&amp;nbsp;&amp;nbsp;&amp;nbsp;&amp;nbsp;&amp;nbsp;&amp;nbsp;&amp;nbsp;&amp;nbsp;}&lt;br&gt;&lt;div&gt;&lt;/div&gt;&lt;br&gt;&lt;div&gt;&lt;/div&gt;&amp;nbsp;&amp;nbsp;&amp;nbsp;&amp;nbsp;&amp;nbsp;&amp;nbsp;&amp;nbsp;&amp;nbsp;&amp;nbsp;&amp;nbsp;&amp;nbsp;&amp;nbsp;tab[i] = new Entry(key, value);&lt;br&gt;&lt;div&gt;&lt;/div&gt;&amp;nbsp;&amp;nbsp;&amp;nbsp;&amp;nbsp;&amp;nbsp;&amp;nbsp;&amp;nbsp;&amp;nbsp;&amp;nbsp;&amp;nbsp;&amp;nbsp;&amp;nbsp;int sz = ++size;&lt;br&gt;&lt;div&gt;&lt;/div&gt;&amp;nbsp;&amp;nbsp;&amp;nbsp;&amp;nbsp;&amp;nbsp;&amp;nbsp;&amp;nbsp;&amp;nbsp;&amp;nbsp;&amp;nbsp;&amp;nbsp;&amp;nbsp;if (!cleanSomeSlots(i, sz) &amp;amp;&amp;amp; sz &amp;gt;= threshold)&lt;br&gt;&lt;div&gt;&lt;/div&gt;&amp;nbsp;&amp;nbsp;&amp;nbsp;&amp;nbsp;&amp;nbsp;&amp;nbsp;&amp;nbsp;&amp;nbsp;&amp;nbsp;&amp;nbsp;&amp;nbsp;&amp;nbsp;&amp;nbsp;&amp;nbsp;&amp;nbsp;&amp;nbsp;rehash();&lt;br&gt;&lt;div&gt;&lt;/div&gt;&amp;nbsp;&amp;nbsp;&amp;nbsp;&amp;nbsp;&amp;nbsp;&amp;nbsp;&amp;nbsp;&amp;nbsp;}&lt;/div&gt;" style="rounded=0;whiteSpace=wrap;html=1;fontSize=13;strokeWidth=2;align=left;verticalAlign=top;" vertex="1" parent="1">
          <mxGeometry x="742" y="87" width="319" height="424" as="geometry" />
        </mxCell>
        <mxCell id="G72dxYS67CxA6Sql_L50-7" value="" style="endArrow=classic;html=1;rounded=0;fontSize=13;fontColor=#FF0000;strokeColor=#FF0000;strokeWidth=2;entryX=-0.004;entryY=0.198;entryDx=0;entryDy=0;entryPerimeter=0;shape=flexArrow;" edge="1" parent="1" target="G72dxYS67CxA6Sql_L50-4">
          <mxGeometry width="50" height="50" relative="1" as="geometry">
            <mxPoint x="509" y="172" as="sourcePoint" />
            <mxPoint x="636" y="167" as="targetPoint" />
          </mxGeometry>
        </mxCell>
        <mxCell id="G72dxYS67CxA6Sql_L50-9" value="" style="html=1;shadow=0;dashed=0;align=center;verticalAlign=middle;shape=mxgraph.arrows2.arrow;dy=0.6;dx=40;flipH=1;notch=0;fontSize=13;fontColor=#FF0000;strokeWidth=2;strokeColor=#FF0000;" vertex="1" parent="1">
          <mxGeometry x="697" y="241" width="78" height="17" as="geometry" />
        </mxCell>
        <mxCell id="G72dxYS67CxA6Sql_L50-10" value="&lt;div class=&quot;mind-clipboard&quot;&gt;&lt;font color=&quot;#000000&quot;&gt;public T get() {&lt;br&gt;&lt;/font&gt;&lt;div&gt;&lt;/div&gt;&lt;font color=&quot;#000000&quot;&gt;&amp;nbsp;&amp;nbsp;&amp;nbsp;&amp;nbsp;&amp;nbsp;&amp;nbsp;&amp;nbsp;&amp;nbsp;Thread t = Thread.currentThread();&lt;br&gt;&lt;/font&gt;&lt;div&gt;&lt;/div&gt;&lt;font color=&quot;#000000&quot;&gt;&amp;nbsp;&amp;nbsp;&amp;nbsp;&amp;nbsp;&amp;nbsp;&amp;nbsp;&amp;nbsp;&amp;nbsp;ThreadLocalMap map = getMap(t);&lt;br&gt;&lt;/font&gt;&lt;div&gt;&lt;/div&gt;&lt;font color=&quot;#000000&quot;&gt;&amp;nbsp;&amp;nbsp;&amp;nbsp;&amp;nbsp;&amp;nbsp;&amp;nbsp;&amp;nbsp;&amp;nbsp;if (map != null) {&lt;/font&gt;&lt;div&gt;&lt;font color=&quot;#000000&quot;&gt;&amp;nbsp; &amp;nbsp; &amp;nbsp; &amp;nbsp; &amp;nbsp; &amp;nbsp; &lt;/font&gt;//从数组中去获取Entry对象&lt;br&gt;&lt;div&gt;&lt;/div&gt;&amp;nbsp;&amp;nbsp;&amp;nbsp;&amp;nbsp;&amp;nbsp;&amp;nbsp;&amp;nbsp;&amp;nbsp;&amp;nbsp;&amp;nbsp;&amp;nbsp;&amp;nbsp;ThreadLocalMap.Entry e = map.getEntry(this);&lt;br&gt;&lt;div&gt;&lt;/div&gt;&lt;font color=&quot;#000000&quot;&gt;&amp;nbsp;&amp;nbsp;&amp;nbsp;&amp;nbsp;&amp;nbsp;&amp;nbsp;&amp;nbsp;&amp;nbsp;&amp;nbsp;&amp;nbsp;&amp;nbsp;&amp;nbsp;if (e != null) {&lt;br&gt;&lt;/font&gt;&lt;div&gt;&lt;/div&gt;&lt;font color=&quot;#000000&quot;&gt;&amp;nbsp;&amp;nbsp;&amp;nbsp;&amp;nbsp;&amp;nbsp;&amp;nbsp;&amp;nbsp;&amp;nbsp;&amp;nbsp;&amp;nbsp;&amp;nbsp;&amp;nbsp;&amp;nbsp;&amp;nbsp;&amp;nbsp;&amp;nbsp;@SuppressWarnings(&quot;unchecked&quot;)&lt;br&gt;&lt;/font&gt;&lt;div&gt;&lt;/div&gt;&lt;font color=&quot;#000000&quot;&gt;&amp;nbsp;&amp;nbsp;&amp;nbsp;&amp;nbsp;&amp;nbsp;&amp;nbsp;&amp;nbsp;&amp;nbsp;&amp;nbsp;&amp;nbsp;&amp;nbsp;&amp;nbsp;&amp;nbsp;&amp;nbsp;&amp;nbsp;&amp;nbsp;T result = (T)e.value;&lt;br&gt;&lt;/font&gt;&lt;div&gt;&lt;/div&gt;&lt;font color=&quot;#000000&quot;&gt;&amp;nbsp;&amp;nbsp;&amp;nbsp;&amp;nbsp;&amp;nbsp;&amp;nbsp;&amp;nbsp;&amp;nbsp;&amp;nbsp;&amp;nbsp;&amp;nbsp;&amp;nbsp;&amp;nbsp;&amp;nbsp;&amp;nbsp;&amp;nbsp;return result;&lt;br&gt;&lt;/font&gt;&lt;div&gt;&lt;/div&gt;&lt;font color=&quot;#000000&quot;&gt;&amp;nbsp;&amp;nbsp;&amp;nbsp;&amp;nbsp;&amp;nbsp;&amp;nbsp;&amp;nbsp;&amp;nbsp;&amp;nbsp;&amp;nbsp;&amp;nbsp;&amp;nbsp;}&lt;br&gt;&lt;/font&gt;&lt;div&gt;&lt;/div&gt;&lt;font color=&quot;#000000&quot;&gt;&amp;nbsp;&amp;nbsp;&amp;nbsp;&amp;nbsp;&amp;nbsp;&amp;nbsp;&amp;nbsp;&amp;nbsp;}&lt;br&gt;&lt;/font&gt;&lt;div&gt;&lt;/div&gt;&lt;font color=&quot;#000000&quot;&gt;&amp;nbsp;&amp;nbsp;&amp;nbsp;&amp;nbsp;&amp;nbsp;&amp;nbsp;&amp;nbsp;&amp;nbsp;return &lt;/font&gt;setInitialValue(); //如果找不到对应的Entry对象，就返回ThreadLocal#initialValue()的返回值，并将该值封装成Entry存入数组中。&lt;br&gt;&lt;div&gt;&lt;/div&gt;&lt;font color=&quot;#000000&quot;&gt;&amp;nbsp;&amp;nbsp;&amp;nbsp;&amp;nbsp;}&lt;/font&gt;&lt;/div&gt;&lt;/div&gt;" style="rounded=0;whiteSpace=wrap;html=1;fontSize=13;fontColor=#FF0000;strokeColor=#000000;strokeWidth=2;align=left;verticalAlign=top;" vertex="1" parent="1">
          <mxGeometry x="343" y="303" width="354" height="266" as="geometry" />
        </mxCell>
        <mxCell id="G72dxYS67CxA6Sql_L50-12" value="&lt;div class=&quot;mind-clipboard&quot;&gt;&lt;font color=&quot;#ff0000&quot; style=&quot;font-size: 18px&quot;&gt;总结：ThreadLocal的所有操作，都是在操作当前线程的threadlocals属性中的数组&lt;/font&gt;&lt;/div&gt;" style="text;html=1;strokeColor=none;fillColor=none;align=center;verticalAlign=middle;whiteSpace=wrap;rounded=0;fontSize=13;fontColor=#FF0000;" vertex="1" parent="1">
          <mxGeometry x="29" y="612" width="668" height="30" as="geometry" />
        </mxCell>
      </root>
    </mxGraphModel>
  </diagram>
</mxfile>
